HIERARCHY
ROOT Hips
{
  OFFSET -10.5161 93.4497 -11.0633
  CHANNELS 6 Xposition Yposition Zposition Zrotation Xrotation Yrotation
  JOINT LeftUpLeg
  {
    OFFSET 8.64259 1.95398 -2.38835
    CHANNELS 6 Xposition Yposition Zposition Zrotation Xrotation Yrotation
    JOINT LeftLeg
    {
      OFFSET 43.7702 0 0
      CHANNELS 6 Xposition Yposition Zposition Zrotation Xrotation Yrotation
      JOINT LeftFoot
      {
        OFFSET 40.6238 0 0
        CHANNELS 6 Xposition Yposition Zposition Zrotation Xrotation Yrotation
        JOINT LeftToeBase
        {
          OFFSET 12.7242 0 0
          CHANNELS 6 Xposition Yposition Zposition Zrotation Xrotation Yrotation
          End Site
          {
            OFFSET 0 0 0
          }
        }
      }
    }
  }
  JOINT RightUpLeg
  {
    OFFSET -8.2249 1.95398 -2.59336
    CHANNELS 6 Xposition Yposition Zposition Zrotation Xrotation Yrotation
    JOINT RightLeg
    {
      OFFSET 43.5653 0 0
      CHANNELS 6 Xposition Yposition Zposition Zrotation Xrotation Yrotation
      JOINT RightFoot
      {
        OFFSET 40.6238 0 0
        CHANNELS 6 Xposition Yposition Zposition Zrotation Xrotation Yrotation
        JOINT RightToeBase
        {
          OFFSET 12.7242 0 0
          CHANNELS 6 Xposition Yposition Zposition Zrotation Xrotation Yrotation
          End Site
          {
            OFFSET 0 0 0
          }
        }
      }
    }
  }
  JOINT Spine
  {
    OFFSET 0.165834 0.87714 6.61349
    CHANNELS 6 Xposition Yposition Zposition Zrotation Xrotation Yrotation
    JOINT Spine1
    {
      OFFSET 7.38963 1.71661e-005 0
      CHANNELS 6 Xposition Yposition Zposition Zrotation Xrotation Yrotation
      JOINT Spine2
      {
        OFFSET 11.9445 1.14441e-005 0
        CHANNELS 6 Xposition Yposition Zposition Zrotation Xrotation Yrotation
        JOINT Spine3
        {
          OFFSET 14.7254 4.19617e-005 0
          CHANNELS 6 Xposition Yposition Zposition Zrotation Xrotation Yrotation
          JOINT Spine4
          {
            OFFSET 10.9679 0 0
            CHANNELS 6 Xposition Yposition Zposition Zrotation Xrotation Yrotation
            JOINT RightShoulder
            {
              OFFSET 2.46616 -1.6653 3.69651
              CHANNELS 6 Xposition Yposition Zposition Zrotation Xrotation Yrotation
              JOINT RightArm
              {
                OFFSET 13.0012 0 0
                CHANNELS 6 Xposition Yposition Zposition Zrotation Xrotation Yrotation
                JOINT RightForeArm
                {
                  OFFSET 28.7848 1.52588e-005 0
                  CHANNELS 6 Xposition Yposition Zposition Zrotation Xrotation Yrotation
                  JOINT RightHand
                  {
                    OFFSET 26.5688 1.52588e-005 0
                    CHANNELS 6 Xposition Yposition Zposition Zrotation Xrotation Yrotation
                    JOINT RightHandMiddle1
                    {
                      OFFSET 8.03675 -0.886581 0.727868
                      CHANNELS 6 Xposition Yposition Zposition Zrotation Xrotation Yrotation
                      JOINT RightHandMiddle2
                      {
                        OFFSET 2.78833 0 0
                        CHANNELS 6 Xposition Yposition Zposition Zrotation Xrotation Yrotation
                        JOINT RightHandMiddle3
                        {
                          OFFSET 2.41155 0 0
                          CHANNELS 6 Xposition Yposition Zposition Zrotation Xrotation Yrotation
                          End Site
                          {
                            OFFSET 0 0 0
                          }
                        }
                      }
                    }
                    JOINT RightHandRing1
                    {
                      OFFSET 7.97966 -0.886765 -1.00486
                      CHANNELS 6 Xposition Yposition Zposition Zrotation Xrotation Yrotation
                      JOINT RightHandRing2
                      {
                        OFFSET 2.86368 0 0
                        CHANNELS 6 Xposition Yposition Zposition Zrotation Xrotation Yrotation
                        JOINT RightHandRing3
                        {
                          OFFSET 2.11079 0 0
                          CHANNELS 6 Xposition Yposition Zposition Zrotation Xrotation Yrotation
                          End Site
                          {
                            OFFSET 0 0 0
                          }
                        }
                      }
                    }
                    JOINT RightHandPinky1
                    {
                      OFFSET 8.03707 -0.887528 -2.60696
                      CHANNELS 6 Xposition Yposition Zposition Zrotation Xrotation Yrotation
                      JOINT RightHandPinky2
                      {
                        OFFSET 1.84627 0 0
                        CHANNELS 6 Xposition Yposition Zposition Zrotation Xrotation Yrotation
                        JOINT RightHandPinky3
                        {
                          OFFSET 1.88434 0 0
                          CHANNELS 6 Xposition Yposition Zposition Zrotation Xrotation Yrotation
                          End Site
                          {
                            OFFSET 0 0 0
                          }
                        }
                      }
                    }
                    JOINT RightHandIndex1
                    {
                      OFFSET 7.92262 -0.885498 2.31175
                      CHANNELS 6 Xposition Yposition Zposition Zrotation Xrotation Yrotation
                      JOINT RightHandIndex2
                      {
                        OFFSET 2.63761 0 0
                        CHANNELS 6 Xposition Yposition Zposition Zrotation Xrotation Yrotation
                        JOINT RightHandIndex3
                        {
                          OFFSET 2.16656 0 0
                          CHANNELS 6 Xposition Yposition Zposition Zrotation Xrotation Yrotation
                          End Site
                          {
                            OFFSET 0 0 0
                          }
                        }
                      }
                    }
                    JOINT RightHandThumb1
                    {
                      OFFSET 3.4769 0.0597992 2.88789
                      CHANNELS 6 Xposition Yposition Zposition Zrotation Xrotation Yrotation
                      JOINT RightHandThumb2
                      {
                        OFFSET 2.77686 9.72748e-005 -1.52588e-005
                        CHANNELS 6 Xposition Yposition Zposition Zrotation Xrotation Yrotation
                        JOINT RightHandThumb3
                        {
                          OFFSET 2.42058 -9.15528e-005 0
                          CHANNELS 6 Xposition Yposition Zposition Zrotation Xrotation Yrotation
                          End Site
                          {
                            OFFSET 0 0 0
                          }
                        }
                      }
                    }
                  }
                }
              }
            }
            JOINT LeftShoulder
            {
              OFFSET 2.38034 -1.29275 -3.7523
              CHANNELS 6 Xposition Yposition Zposition Zrotation Xrotation Yrotation
              JOINT LeftArm
              {
                OFFSET 16.3182 6.10352e-005 0
                CHANNELS 6 Xposition Yposition Zposition Zrotation Xrotation Yrotation
                JOINT LeftForeArm
                {
                  OFFSET 27.0901 0 0
                  CHANNELS 6 Xposition Yposition Zposition Zrotation Xrotation Yrotation
                  JOINT LeftHand
                  {
                    OFFSET 24.5451 1.52588e-005 0
                    CHANNELS 6 Xposition Yposition Zposition Zrotation Xrotation Yrotation
                    JOINT LeftHandMiddle1
                    {
                      OFFSET 9.21802 0.665817 0.545532
                      CHANNELS 6 Xposition Yposition Zposition Zrotation Xrotation Yrotation
                      JOINT LeftHandMiddle2
                      {
                        OFFSET 2.66255 0 0
                        CHANNELS 6 Xposition Yposition Zposition Zrotation Xrotation Yrotation
                        JOINT LeftHandMiddle3
                        {
                          OFFSET 2.2804 0 0
                          CHANNELS 6 Xposition Yposition Zposition Zrotation Xrotation Yrotation
                          End Site
                          {
                            OFFSET 0 0 0
                          }
                        }
                      }
                    }
                    JOINT LeftHandRing1
                    {
                      OFFSET 9.24775 0.665192 -1.1267
                      CHANNELS 6 Xposition Yposition Zposition Zrotation Xrotation Yrotation
                      JOINT LeftHandRing2
                      {
                        OFFSET 2.47041 0 -1.52588e-005
                        CHANNELS 6 Xposition Yposition Zposition Zrotation Xrotation Yrotation
                        JOINT LeftHandRing3
                        {
                          OFFSET 2.2054 0 0
                          CHANNELS 6 Xposition Yposition Zposition Zrotation Xrotation Yrotation
                          End Site
                          {
                            OFFSET 0 0 0
                          }
                        }
                      }
                    }
                    JOINT LeftHandPinky1
                    {
                      OFFSET 9.35384 0.66301 -2.72332
                      CHANNELS 6 Xposition Yposition Zposition Zrotation Xrotation Yrotation
                      JOINT LeftHandPinky2
                      {
                        OFFSET 1.63407 0 0
                        CHANNELS 6 Xposition Yposition Zposition Zrotation Xrotation Yrotation
                        JOINT LeftHandPinky3
                        {
                          OFFSET 1.71176 0 0
                          CHANNELS 6 Xposition Yposition Zposition Zrotation Xrotation Yrotation
                          End Site
                          {
                            OFFSET 0 0 0
                          }
                        }
                      }
                    }
                    JOINT LeftHandIndex1
                    {
                      OFFSET 8.73161 0.675903 2.06801
                      CHANNELS 6 Xposition Yposition Zposition Zrotation Xrotation Yrotation
                      JOINT LeftHandIndex2
                      {
                        OFFSET 2.66689 0 0
                        CHANNELS 6 Xposition Yposition Zposition Zrotation Xrotation Yrotation
                        JOINT LeftHandIndex3
                        {
                          OFFSET 2.12946 0 1.52588e-005
                          CHANNELS 6 Xposition Yposition Zposition Zrotation Xrotation Yrotation
                          End Site
                          {
                            OFFSET 0 0 0
                          }
                        }
                      }
                    }
                    JOINT LeftHandThumb1
                    {
                      OFFSET 4.96735 -0.62265 3.39586
                      CHANNELS 6 Xposition Yposition Zposition Zrotation Xrotation Yrotation
                      JOINT LeftHandThumb2
                      {
                        OFFSET 2.15386 1.52588e-005 0
                        CHANNELS 6 Xposition Yposition Zposition Zrotation Xrotation Yrotation
                        JOINT LeftHandThumb3
                        {
                          OFFSET 2.19511 -3.43323e-005 1.52588e-005
                          CHANNELS 6 Xposition Yposition Zposition Zrotation Xrotation Yrotation
                          End Site
                          {
                            OFFSET 0 0 0
                          }
                        }
                      }
                    }
                  }
                }
              }
            }
            JOINT Neck
            {
              OFFSET 5.0226 -0.0266342 0
              CHANNELS 6 Xposition Yposition Zposition Zrotation Xrotation Yrotation
              JOINT Head
              {
                OFFSET 6.69364 2.86102e-005 0
                CHANNELS 6 Xposition Yposition Zposition Zrotation Xrotation Yrotation
                End Site
                {
                  OFFSET 0 0 0
                }
              }
            }
          }
        }
      }
    }
  }
}
MOTION
Frames:	4
Frame Time:	0.0333333
11.8598 87.5552 -93.1777 -89.1471 -2.3819 -90.5748 8.64259 1.95398 -2.38835 -174.917 28.9642 89.4296 43.7702 7.03335e-006 1.42109e-014 -2.3224 -23.0196 -3.05267 40.6238 1.43051e-006 9.53674e-007 56.5938 -9.25349 -6.34664 12.7242 2.38419e-006 9.53674e-007 28.7808 6.25319e-006 6.60086e-006 -8.2249 1.95398 -2.59336 -179.783 -2.17579 89.8731 43.5653 7.27177e-006 1.42109e-014 -27.443 10.7777 0.521237 40.6238 2.38419e-006 9.53674e-007 86.1189 25.8293 8.2453 12.7242 -4.76837e-007 -1.42109e-014 28.7808 1.40891e-005 2.62054e-005 0.165834 0.87714 6.61349 1.89828 6.69863 -91.3332 7.38963 1.71661e-005 -9.72809e-008 13.5203 3.11028 -3.20751 11.9445 1.14441e-005 6.65395e-008 1.84872 2.96619 -3.34121 14.7254 4.19617e-005 8.195e-008 -20.6999 3.93364 -2.1243 10.9679 -9.53674e-006 5.82672e-008 -0.687216 3.93365 -2.12432 2.46616 -1.6653 3.69651 97.128 -41.8827 -90.7076 13.0012 0 0 21.1947 19.2179 21.8807 28.7848 1.52588e-005 -1.19209e-007 -2.19116 0.500144 -60.7016 26.5688 1.52588e-005 4.76837e-007 7.345 2.98191 36.1586 8.03675 -0.886581 0.727868 -89.4039 88.9709 89.0936 2.78833 2.38419e-007 0 -0.0604871 1.10183e-005 1.81754e-006 2.41155 0 2.84217e-014 -0.0639212 -4.18864e-006 -2.67934e-006 7.97966 -0.886765 -1.00486 -89.3944 88.9811 89.0841 2.86368 0 0 -1.15742 1.10271e-008 4.42724e-008 2.11079 8.88179e-016 0 2.576 3.32463e-006 -7.94678e-007 8.03707 -0.887528 -2.60696 -88.8572 89.3579 88.547 1.84627 0 0 -1.14578 -6.55836e-006 1.93578e-006 1.88434 0 0 1.14577 -2.24855e-007 -8.63968e-007 7.92262 -0.885498 2.31175 -89.4226 88.9487 89.1123 2.63761 4.76837e-007 0 0.409285 1.5243e-005 0.000508173 2.16656 -2.38419e-007 0 -0.6366 -1.72714e-005 1.29435e-006 3.4769 0.0597992 2.88789 104.364 40.5023 -88.8246 2.77686 9.72748e-005 -1.52588e-005 -7.66903 0.186186 -1.35045 2.42058 -9.15528e-005 1.42109e-014 -11.2634 -7.22298e-006 6.48223e-005 2.38034 -1.29275 -3.7523 -119.603 -62.6084 43.7501 16.3182 6.10352e-005 1.19209e-007 -29.4479 -9.21411 10.0632 27.0901 0 -7.10543e-015 -7.08816 -9.23239 -49.4501 24.5451 1.52588e-005 0 -7.61935 -1.50301 25.7399 9.21802 0.665817 0.545532 -91.1873 -87.8289 -89.9988 2.66255 0 0 3.40888 2.29958e-005 0.00354939 2.2804 -1.77636e-015 0 -0.954863 -2.79657e-005 -3.16951e-006 9.24775 0.665192 -1.1267 -91.1871 -89.4015 -89.9985 2.47041 -4.76837e-007 -1.52588e-005 2.85637 -7.72567e-006 0.00293899 2.2054 -1.77636e-015 1.42109e-014 -3.16844 1.10282e-005 1.19818e-006 9.35384 0.66301 -2.72332 88.8084 -89.717 89.9969 1.63407 -4.76837e-007 1.42109e-014 2.5448 3.75963e-006 0.00267268 1.71176 -3.55271e-015 0 -2.54482 -1.12589e-005 -2.56776e-006 8.73161 0.675903 2.06801 -91.1883 -86.1973 -89.9998 2.66689 -9.53674e-007 0 6.13104 -4.63166e-007 0.00650749 2.12946 1.04308e-007 1.52588e-005 -2.04543 -7.31752e-006 7.4679e-007 4.96735 -0.62265 3.39586 -101.949 -40.7242 -90.0694 2.15386 1.52588e-005 0 10.0172 6.82346e-007 -2.98543e-006 2.19511 -3.43323e-005 1.52588e-005 -2.66977 -1.80045e-005 -3.55914e-007 5.0226 -0.0266342 -9.09495e-013 -13.5138 7.94381 46.2978 6.69364 2.86102e-005 -1.09447e-007 23.3729 2.4792 -19.6203 
8.54779 86.835 -92.1713 -88.332 -2.17153 -90.6867 8.64259 1.95398 -2.38835 -175.058 29.2098 89.5183 43.7702 7.03335e-006 0 -3.87859 -24.1865 -2.65861 40.6238 1.43051e-006 9.53674e-007 57.8199 -8.83812 -5.87571 12.7242 2.38419e-006 9.53674e-007 28.7808 6.25319e-006 6.60086e-006 -8.2249 1.95398 -2.59336 179.965 -3.10075 89.02 43.5653 7.27177e-006 1.42109e-014 -28.5353 9.58875 0.424944 40.6238 2.38419e-006 9.53674e-007 86.5583 27.2097 8.5975 12.7242 -4.76837e-007 -1.42109e-014 28.7808 1.40891e-005 2.62054e-005 0.165834 0.87714 6.61349 1.96171 6.61743 -91.066 7.38963 1.71661e-005 -9.72809e-008 13.6882 3.35384 -2.89153 11.9445 1.14441e-005 6.65395e-008 2.01785 3.2234 -3.0363 14.7254 4.19617e-005 8.195e-008 -20.5397 4.06755 -1.74924 10.9679 -9.53674e-006 5.82672e-008 -0.527048 4.06756 -1.74926 2.46616 -1.6653 3.69651 97.4395 -44.4385 -89.894 13.0012 0 0 20.3265 19.6168 24.3065 28.7848 1.52588e-005 -1.19209e-007 1.45372 3.03543 -58.5397 26.5688 1.52588e-005 4.76837e-007 4.97735 2.23014 38.54 8.03675 -0.886581 0.727868 -89.4039 88.9709 89.0936 2.78833 2.38419e-007 0 -0.0604871 1.10183e-005 1.81754e-006 2.41155 -8.88179e-016 -2.84217e-014 -0.0639212 -4.18864e-006 -2.67934e-006 7.97966 -0.886765 -1.00486 -89.3944 88.9811 89.0841 2.86368 -8.88179e-016 0 -1.15742 1.10271e-008 4.42724e-008 2.11079 0 0 2.576 3.32463e-006 -7.94678e-007 8.03707 -0.887528 -2.60696 -88.8572 89.3579 88.547 1.84627 8.88179e-016 0 -1.14578 -6.55836e-006 1.93578e-006 1.88434 -1.77636e-015 -2.84217e-014 1.14577 -2.24855e-007 -8.63968e-007 7.92262 -0.885498 2.31175 -89.4226 88.9487 89.1123 2.63761 4.76837e-007 2.84217e-014 0.409285 1.5243e-005 0.000508173 2.16656 -2.38419e-007 0 -0.6366 -1.72714e-005 1.29435e-006 3.4769 0.0597992 2.88789 104.364 40.5023 -88.8246 2.77686 9.72748e-005 -1.52588e-005 -7.66903 0.186186 -1.35045 2.42058 -9.15528e-005 0 -11.2634 -7.22298e-006 6.48223e-005 2.38034 -1.29275 -3.7523 -117.693 -62.3023 45.9034 16.3182 6.10352e-005 1.19209e-007 -30.1661 -8.69365 11.1096 27.0901 1.42109e-014 -7.10543e-015 -7.215 -8.99379 -50.6734 24.5451 1.52588e-005 3.55271e-015 -8.08057 -1.59298 25.0272 9.21802 0.665817 0.545532 -91.1873 -87.8289 -89.9988 2.66255 -3.55271e-015 0 3.40888 2.29958e-005 0.00354939 2.2804 3.55271e-015 0 -0.954863 -2.79657e-005 -3.16951e-006 9.24775 0.665192 -1.1267 -91.1871 -89.4015 -89.9985 2.47041 -4.76837e-007 -1.52588e-005 2.85637 -7.72567e-006 0.00293899 2.2054 0 0 -3.16844 1.10282e-005 1.19818e-006 9.35384 0.66301 -2.72332 88.8084 -89.717 89.9969 1.63407 -4.76837e-007 0 2.5448 3.75963e-006 0.00267268 1.71176 1.77636e-015 0 -2.54482 -1.12589e-005 -2.56776e-006 8.73161 0.675903 2.06801 -91.1883 -86.1973 -89.9998 2.66689 -9.53674e-007 1.42109e-014 6.13104 -4.63166e-007 0.00650749 2.12946 1.04308e-007 1.52588e-005 -2.04543 -7.31752e-006 7.4679e-007 4.96735 -0.62265 3.39586 -101.949 -40.7242 -90.0694 2.15386 1.52588e-005 -1.42109e-014 10.0172 6.82346e-007 -2.98543e-006 2.19511 -3.43323e-005 1.52588e-005 -2.66977 -1.80045e-005 -3.55914e-007 5.0226 -0.0266342 -9.166e-013 -11.8882 8.39762 44.8232 6.69364 2.86102e-005 -1.09447e-007 23.1784 2.33932 -19.5271 
4.86354 86.3008 -90.7195 -88.1232 -2.06069 -91.3734 8.64259 1.95398 -2.38835 -175.504 27.3793 88.7885 43.7702 7.03335e-006 1.42109e-014 -7.32633 -30.1718 -3.99509 40.6238 1.43051e-006 9.53674e-007 57.454 -7.55859 -5.07752 12.7242 2.38419e-006 9.53674e-007 28.7808 6.25319e-006 6.60086e-006 -8.2249 1.95398 -2.59336 179.268 -4.74306 86.8627 43.5653 7.27177e-006 1.42109e-014 -29.8768 7.13877 0.262933 40.6238 2.38419e-006 9.53674e-007 85.4616 28.8495 9.51986 12.7242 -4.76837e-007 0 28.7808 1.40891e-005 2.62054e-005 0.165834 0.87714 6.61349 2.04599 6.61893 -90.8692 7.38963 1.71661e-005 -9.72809e-008 13.6908 3.59504 -2.58543 11.9445 1.14441e-005 6.65395e-008 2.02181 3.47781 -2.74117 14.7254 4.19617e-005 8.195e-008 -20.5448 4.20501 -1.38442 10.9679 -9.53674e-006 5.82672e-008 -0.532121 4.20502 -1.38444 2.46616 -1.6653 3.69651 97.8395 -45.6742 -89.1168 13.0012 2.84217e-014 0 21.3326 18.7538 26.2844 28.7848 1.52588e-005 -1.19209e-007 6.26779 7.29722 -54.9398 26.5688 1.52588e-005 4.76837e-007 -1.93926 -0.530455 36.4313 8.03675 -0.886581 0.727868 -89.4039 88.9709 89.0936 2.78833 2.38419e-007 0 -0.0604871 1.10183e-005 1.81754e-006 2.41155 0 0 -0.0639212 -4.18864e-006 -2.67934e-006 7.97966 -0.886765 -1.00486 -89.3944 88.9811 89.0841 2.86368 1.77636e-015 -2.84217e-014 -1.15742 1.10271e-008 4.42724e-008 2.11079 -1.77636e-015 0 2.576 3.32463e-006 -7.94678e-007 8.03707 -0.887528 -2.60696 -88.8572 89.3579 88.547 1.84627 0 0 -1.14578 -6.55836e-006 1.93578e-006 1.88434 -1.77636e-015 0 1.14577 -2.24855e-007 -8.63968e-007 7.92262 -0.885498 2.31175 -89.4226 88.9487 89.1123 2.63761 4.76837e-007 0 0.409285 1.5243e-005 0.000508173 2.16656 -2.38419e-007 2.84217e-014 -0.6366 -1.72714e-005 1.29435e-006 3.4769 0.0597992 2.88789 104.364 40.5023 -88.8246 2.77686 9.72748e-005 -1.52588e-005 -7.66903 0.186186 -1.35045 2.42058 -9.15528e-005 1.42109e-014 -11.2634 -7.22298e-006 6.48223e-005 2.38034 -1.29275 -3.7523 -117.064 -62.5817 46.8029 16.3182 6.10352e-005 1.19209e-007 -30.9101 -8.29957 11.7006 27.0901 0 -7.10543e-015 -6.84573 -8.78162 -50.2298 24.5451 1.52588e-005 3.55271e-015 -6.86625 -1.2019 23.4626 9.21802 0.665817 0.545532 -91.1873 -87.8289 -89.9988 2.66255 -3.55271e-015 0 3.40888 2.29958e-005 0.00354939 2.2804 0 0 -0.954863 -2.79657e-005 -3.16951e-006 9.24775 0.665192 -1.1267 -91.1871 -89.4015 -89.9985 2.47041 -4.76837e-007 -1.52588e-005 2.85637 -7.72567e-006 0.00293899 2.2054 0 -1.42109e-014 -3.16844 1.10282e-005 1.19818e-006 9.35384 0.66301 -2.72332 88.8084 -89.717 89.9969 1.63407 -4.76837e-007 1.42109e-014 2.5448 3.75963e-006 0.00267268 1.71176 -3.55271e-015 0 -2.54482 -1.12589e-005 -2.56776e-006 8.73161 0.675903 2.06801 -91.1883 -86.1973 -89.9998 2.66689 -9.53674e-007 1.42109e-014 6.13104 -4.63166e-007 0.00650749 2.12946 1.04308e-007 1.52588e-005 -2.04543 -7.31752e-006 7.4679e-007 4.96735 -0.62265 3.39586 -101.949 -40.7242 -90.0694 2.15386 1.52588e-005 -1.42109e-014 10.0172 6.82346e-007 -2.98543e-006 2.19511 -3.43323e-005 1.52588e-005 -2.66977 -1.80045e-005 -3.55914e-007 5.0226 -0.0266342 -9.166e-013 -9.71357 8.7424 44.5892 6.69364 2.86102e-005 -1.09447e-007 22.2793 1.84497 -20.0625 
0.968757 86.3066 -88.9938 -87.3933 -1.96532 -92.5677 8.64259 1.95398 -2.38835 -175.832 25.3249 87.3643 43.7702 7.03335e-006 0 -5.90637 -38.4413 -5.43791 40.6238 1.43051e-006 9.53674e-007 53.3428 0.165055 -0.199329 12.7242 2.38419e-006 9.53674e-007 28.7808 6.25319e-006 6.60086e-006 -8.2249 1.95398 -2.59336 178.315 -5.59723 83.7775 43.5653 7.27177e-006 1.42109e-014 -31.2524 4.57168 0.08922 40.6238 2.38419e-006 9.53674e-007 80.1541 29.558 11.4328 12.7242 -4.76837e-007 0 28.7808 1.40891e-005 2.62054e-005 0.165834 0.87714 6.61349 2.13698 6.57474 -90.5939 7.38963 1.71661e-005 -9.72809e-008 13.7839 3.80369 -2.17275 11.9445 1.14441e-005 6.65395e-008 2.11645 3.70455 -2.3384 14.7254 4.19617e-005 8.195e-008 -20.4595 4.28974 -0.925893 10.9679 -9.53674e-006 5.82672e-008 -0.446901 4.2897 -0.925922 2.46616 -1.6653 3.69651 97.3202 -47.1971 -89.8004 13.0012 -2.84217e-014 0 20.8318 18.9393 31.4331 28.7848 1.52588e-005 -1.19209e-007 8.33277 9.04008 -54.7187 26.5688 1.52588e-005 4.76837e-007 0.461606 0.359413 34.4204 8.03675 -0.886581 0.727868 -89.4039 88.9709 89.0936 2.78833 2.38419e-007 -1.42109e-014 -0.0604871 1.10183e-005 1.81754e-006 2.41155 3.55271e-015 0 -0.0639212 -4.18864e-006 -2.67934e-006 7.97966 -0.886765 -1.00486 -89.3944 88.9811 89.0841 2.86368 0 0 -1.15742 1.10271e-008 4.42724e-008 2.11079 3.55272e-015 -1.42109e-014 2.576 3.32463e-006 -7.94678e-007 8.03707 -0.887528 -2.60696 -88.8572 89.3579 88.547 1.84627 -7.10543e-015 -1.42109e-014 -1.14578 -6.55836e-006 1.93578e-006 1.88434 0 0 1.14577 -2.24855e-007 -8.63968e-007 7.92262 -0.885498 2.31175 -89.4226 88.9487 89.1123 2.63761 4.76837e-007 0 0.409285 1.5243e-005 0.000508173 2.16656 -2.38419e-007 -1.42109e-014 -0.6366 -1.72714e-005 1.29435e-006 3.4769 0.0597992 2.88789 104.364 40.5023 -88.8246 2.77686 9.72748e-005 -1.52588e-005 -7.66903 0.186186 -1.35045 2.42058 -9.15528e-005 0 -11.2634 -7.22298e-006 6.48223e-005 2.38034 -1.29275 -3.7523 -116.521 -63.1588 47.7267 16.3182 6.10352e-005 1.19209e-007 -30.5313 -8.64447 11.8405 27.0901 1.42109e-014 -7.10543e-015 -12.7774 -14.1039 -50.8506 24.5451 1.52588e-005 0 -4.35522 -0.582568 23.5161 9.21802 0.665817 0.545532 -91.1873 -87.8289 -89.9988 2.66255 -3.55271e-015 0 3.40888 2.29958e-005 0.00354939 2.2804 -3.55271e-015 -1.42109e-014 -0.954863 -2.79657e-005 -3.16951e-006 9.24775 0.665192 -1.1267 -91.1871 -89.4015 -89.9985 2.47041 -4.76837e-007 -1.52588e-005 2.85637 -7.72567e-006 0.00293899 2.2054 3.55271e-015 0 -3.16844 1.10282e-005 1.19818e-006 9.35384 0.66301 -2.72332 88.8084 -89.717 89.9969 1.63407 -4.76837e-007 1.42109e-014 2.5448 3.75963e-006 0.00267268 1.71176 3.55271e-015 1.42109e-014 -2.54482 -1.12589e-005 -2.56776e-006 8.73161 0.675903 2.06801 -91.1883 -86.1973 -89.9998 2.66689 -9.53674e-007 0 6.13104 -4.63166e-007 0.00650749 2.12946 1.04308e-007 1.52588e-005 -2.04543 -7.31752e-006 7.4679e-007 4.96735 -0.62265 3.39586 -101.949 -40.7242 -90.0694 2.15386 1.52588e-005 1.42109e-014 10.0172 6.82346e-007 -2.98543e-006 2.19511 -3.43323e-005 1.52588e-005 -2.66977 -1.80045e-005 -3.55914e-007 5.0226 -0.0266342 -9.23706e-013 -6.97431 9.21606 43.8048 6.69364 2.86102e-005 -1.09447e-007 21.1566 1.61131 -19.4236 
